<svg aria-hidden="true" style="position: absolute; width: 0; height: 0; overflow: hidden;" version="1.1" xmlns="http://www.w3.org/2000/svg" xmlns:xlink="http://www.w3.org/1999/xlink">
<defs>
<symbol id="icon-trash" viewBox="0 0 32 32">
<path stroke-linejoin="round" stroke-linecap="round" stroke-miterlimit="4" stroke-width="2.4" d="M21.333 8v-1.067c0-1.493 0-2.24-0.291-2.811-0.256-0.502-0.664-0.91-1.165-1.165-0.57-0.291-1.317-0.291-2.811-0.291h-2.133c-1.493 0-2.24 0-2.811 0.291-0.502 0.256-0.91 0.664-1.165 1.165-0.291 0.57-0.291 1.317-0.291 2.811v1.067M13.333 15.333v6.667M18.667 15.333v6.667M4 8h24M25.333 8v14.933c0 2.24 0 3.36-0.436 4.216-0.383 0.753-0.995 1.364-1.748 1.748-0.856 0.436-1.976 0.436-4.216 0.436h-5.867c-2.24 0-3.36 0-4.216-0.436-0.753-0.384-1.365-0.995-1.748-1.748-0.436-0.856-0.436-1.976-0.436-4.216v-14.933"></path>
</symbol>
<symbol id="icon-close-white" viewBox="0 0 32 32">
<path fill="none" stroke="#f4f4f4" style="stroke: var(--color1, #f4f4f4)" stroke-linejoin="round" stroke-linecap="round" stroke-miterlimit="4" stroke-width="2.2857" d="M22.667 9.333l-13.333 13.333M9.333 9.333l13.333 13.333"></path>
</symbol>
<symbol id="icon-heart-favorites" viewBox="0 0 32 32">
<path stroke-linejoin="round" stroke-linecap="round" stroke-miterlimit="4" stroke-width="2.4" d="M27.787 6.147c-0.681-0.681-1.49-1.222-2.38-1.591s-1.844-0.559-2.807-0.559c-0.963 0-1.917 0.19-2.807 0.559s-1.699 0.909-2.38 1.591l-1.413 1.413-1.413-1.413c-1.376-1.376-3.241-2.148-5.187-2.148s-3.811 0.773-5.187 2.148c-1.376 1.376-2.148 3.241-2.148 5.187s0.773 3.811 2.148 5.187l11.787 11.787 11.787-11.787c0.681-0.681 1.222-1.49 1.591-2.38s0.559-1.844 0.559-2.807c0-0.963-0.19-1.917-0.559-2.807s-0.909-1.699-1.591-2.38z"></path>
</symbol>
<symbol id="icon-rating-star" viewBox="0 0 34 32">
<path fill="" d="M14.89 2.282c0.737-2.268 3.945-2.268 4.682 0l2.080 6.402c0.33 1.014 1.275 1.701 2.341 1.701h6.731c2.384 0 3.376 3.051 1.447 4.453l-5.446 3.957c-0.863 0.627-1.224 1.738-0.894 2.752l2.080 6.402c0.737 2.268-1.859 4.154-3.788 2.752l-5.446-3.957c-0.863-0.627-2.031-0.627-2.894 0l-5.446 3.957c-1.929 1.402-4.525-0.484-3.788-2.752l2.080-6.402c0.33-1.014-0.031-2.125-0.894-2.752l-5.446-3.957c-1.929-1.402-0.938-4.453 1.447-4.453h6.731c1.066 0 2.012-0.687 2.341-1.701l2.080-6.402z"></path>
</symbol>
</defs>
</svg>
