<svg width="118" height="18" viewBox="0 0 118 18" fill="none" xmlns="http://www.w3.org/2000/svg">
<path d="M28.0489 2.92705C28.3483 2.00574 29.6517 2.00574 29.9511 2.92705L30.7961 5.52786C30.93 5.93989 31.3139 6.21885 31.7472 6.21885H34.4818C35.4505 6.21885 35.8533 7.45846 35.0696 8.02786L32.8572 9.63525C32.5067 9.8899 32.3601 10.3413 32.494 10.7533L33.339 13.3541C33.6384 14.2754 32.5839 15.0415 31.8002 14.4721L29.5878 12.8647C29.2373 12.6101 28.7627 12.6101 28.4122 12.8647L26.1998 14.4721C25.4161 15.0415 24.3616 14.2754 24.661 13.3541L25.506 10.7533C25.6399 10.3413 25.4933 9.8899 25.1428 9.63525L22.9304 8.02787C22.1467 7.45846 22.5495 6.21885 23.5182 6.21885H26.2528C26.6861 6.21885 27.07 5.93989 27.2039 5.52786L28.0489 2.92705Z" fill="#F4F4F4" fill-opacity="0.2"/>
<path d="M48.0489 2.92705C48.3483 2.00574 49.6517 2.00574 49.9511 2.92705L50.7961 5.52786C50.93 5.93989 51.3139 6.21885 51.7472 6.21885H54.4818C55.4505 6.21885 55.8533 7.45846 55.0696 8.02786L52.8572 9.63525C52.5067 9.8899 52.3601 10.3413 52.494 10.7533L53.339 13.3541C53.6384 14.2754 52.5839 15.0415 51.8002 14.4721L49.5878 12.8647C49.2373 12.6101 48.7627 12.6101 48.4122 12.8647L46.1998 14.4721C45.4161 15.0415 44.3616 14.2754 44.661 13.3541L45.506 10.7533C45.6399 10.3413 45.4933 9.8899 45.1428 9.63525L42.9304 8.02787C42.1467 7.45846 42.5495 6.21885 43.5182 6.21885H46.2528C46.6861 6.21885 47.07 5.93989 47.2039 5.52786L48.0489 2.92705Z" fill="#F4F4F4" fill-opacity="0.2"/>
<path d="M68.0489 2.92705C68.3483 2.00574 69.6517 2.00574 69.9511 2.92705L70.7961 5.52786C70.93 5.93989 71.3139 6.21885 71.7472 6.21885H74.4818C75.4505 6.21885 75.8533 7.45846 75.0696 8.02786L72.8572 9.63525C72.5067 9.8899 72.3601 10.3413 72.494 10.7533L73.339 13.3541C73.6384 14.2754 72.5839 15.0415 71.8002 14.4721L69.5878 12.8647C69.2373 12.6101 68.7627 12.6101 68.4122 12.8647L66.1998 14.4721C65.4161 15.0415 64.3616 14.2754 64.661 13.3541L65.506 10.7533C65.6399 10.3413 65.4933 9.8899 65.1428 9.63525L62.9304 8.02787C62.1467 7.45846 62.5495 6.21885 63.5182 6.21885H66.2528C66.6861 6.21885 67.07 5.93989 67.2039 5.52786L68.0489 2.92705Z" fill="#F4F4F4" fill-opacity="0.2"/>
<path d="M88.0489 2.92705C88.3483 2.00574 89.6517 2.00574 89.9511 2.92705L90.7961 5.52786C90.93 5.93989 91.3139 6.21885 91.7472 6.21885H94.4818C95.4505 6.21885 95.8533 7.45846 95.0696 8.02786L92.8572 9.63525C92.5067 9.8899 92.3601 10.3413 92.494 10.7533L93.339 13.3541C93.6384 14.2754 92.5839 15.0415 91.8002 14.4721L89.5878 12.8647C89.2373 12.6101 88.7627 12.6101 88.4122 12.8647L86.1998 14.4721C85.4161 15.0415 84.3616 14.2754 84.661 13.3541L85.506 10.7533C85.6399 10.3413 85.4933 9.8899 85.1428 9.63525L82.9304 8.02787C82.1467 7.45846 82.5495 6.21885 83.5182 6.21885H86.2528C86.6861 6.21885 87.07 5.93989 87.2039 5.52786L88.0489 2.92705Z" fill="#F4F4F4" fill-opacity="0.2"/>
<path d="M108.049 2.92705C108.348 2.00574 109.652 2.00574 109.951 2.92705L110.796 5.52786C110.93 5.93989 111.314 6.21885 111.747 6.21885H114.482C115.451 6.21885 115.853 7.45846 115.07 8.02786L112.857 9.63525C112.507 9.8899 112.36 10.3413 112.494 10.7533L113.339 13.3541C113.638 14.2754 112.584 15.0415 111.8 14.4721L109.588 12.8647C109.237 12.6101 108.763 12.6101 108.412 12.8647L106.2 14.4721C105.416 15.0415 104.362 14.2754 104.661 13.3541L105.506 10.7533C105.64 10.3413 105.493 9.8899 105.143 9.63525L102.93 8.02787C102.147 7.45846 102.549 6.21885 103.518 6.21885H106.253C106.686 6.21885 107.07 5.93989 107.204 5.52786L108.049 2.92705Z" fill="#F4F4F4" fill-opacity="0.2"/>
</svg>
